<?xml version="1.0" encoding="iso-8859-1"?>
<!-- Generator: Adobe Illustrator 19.0.0, SVG Export Plug-In . SVG Version: 6.00 Build 0)  -->
<svg version="1.1" id="Layer_1" xmlns="http://www.w3.org/2000/svg" xmlns:xlink="http://www.w3.org/1999/xlink" x="0px" y="0px"
	 viewBox="0 0 512 512" style="enable-background:new 0 0 512 512;" xml:space="preserve">
<path style="fill:#507C5C;" d="M353.278,379.384H159.102c-7.579,0-13.727-6.135-13.743-13.713
	c-0.004-1.861-0.41-186.327-0.379-217.421c0.058-61.913,63.73-121.176,83.243-137.865c16.24-13.889,39.78-13.841,55.973,0.115
	c22.198,19.129,52.373,52.623,70.487,89.258c3.364,6.804,0.576,15.047-6.227,18.41c-6.807,3.363-15.047,0.576-18.41-6.227
	c-16.294-32.951-43.637-63.25-63.795-80.62c-5.833-5.026-14.312-5.051-20.164-0.048c-35.566,30.419-73.584,77.13-73.621,117.004
	c-0.025,26.047,0.257,160.023,0.35,203.621H353.28c7.589,0,13.743,6.154,13.743,13.743S360.869,379.384,353.278,379.384z"/>
<path style="fill:#CFF09E;" d="M426.41,407.465l-72.576-41.234V189.716l54.107,51.233c11.79,11.165,18.469,26.688,18.469,42.926
	V407.465z"/>
<path style="fill:#507C5C;" d="M426.41,421.21c-2.342,0-4.682-0.598-6.788-1.795l-72.576-41.234
	c-4.299-2.441-6.955-7.005-6.955-11.948V189.716c0-5.49,3.268-10.453,8.312-12.624c5.044-2.169,10.894-1.13,14.881,2.644
	l54.107,51.233c14.465,13.699,22.763,32.982,22.763,52.904v123.591c0,4.894-2.602,9.417-6.83,11.878
	C431.189,420.586,428.799,421.21,426.41,421.21z M367.578,358.233l45.09,25.619v-99.976c0-12.406-5.167-24.415-14.175-32.947
	l-30.914-29.273v136.577H367.578z"/>
<path style="fill:#CFF09E;" d="M85.59,407.465l72.576-41.234V189.716l-54.107,51.233c-11.79,11.165-18.469,26.688-18.469,42.926
	C85.59,283.875,85.59,407.465,85.59,407.465z"/>
<path style="fill:#507C5C;" d="M85.59,421.21c-2.389,0-4.777-0.623-6.913-1.865c-4.229-2.461-6.83-6.984-6.83-11.878V283.875
	c0-19.922,8.297-39.205,22.763-52.903l54.107-51.235c3.987-3.772,9.843-4.81,14.881-2.644c5.044,2.17,8.312,7.133,8.312,12.625
	v176.515c0,4.945-2.657,9.508-6.955,11.948l-72.576,41.234C90.274,420.612,87.93,421.21,85.59,421.21z M144.423,221.656
	l-30.914,29.274c-9.009,8.53-14.175,20.538-14.175,32.945v99.976l45.09-25.619V221.656H144.423z"/>
<circle style="fill:#CFF09E;" cx="255.994" cy="185.588" r="46.892"/>
<path style="fill:#507C5C;" d="M256,246.227c-33.434,0-60.635-27.201-60.635-60.634c0-33.434,27.201-60.635,60.635-60.635
	s60.635,27.201,60.635,60.635C316.635,219.027,289.434,246.227,256,246.227z M256,152.445c-18.278,0-33.149,14.87-33.149,33.149
	s14.87,33.147,33.149,33.147s33.149-14.869,33.149-33.147S274.278,152.445,256,152.445z"/>
<path style="fill:#CFF09E;" d="M205.026,420.675c-0.216,1.909-0.338,3.844-0.338,5.809c0,50.74,51.31,71.772,51.31,71.772
	s51.31-19.892,51.31-71.772c0-1.965-0.122-3.9-0.338-5.809H205.026z"/>
<path style="fill:#507C5C;" d="M256,512c-1.771,0-3.543-0.342-5.213-1.027c-2.442-1.002-59.841-25.211-59.841-84.489
	c0-2.379,0.143-4.851,0.423-7.347c0.782-6.953,6.663-12.207,13.658-12.207h101.947c6.995,0,12.875,5.254,13.658,12.207
	c0.28,2.494,0.423,4.967,0.423,7.347c0,60.595-57.632,83.634-60.085,84.587C259.368,511.689,257.685,512,256,512z M218.977,434.418
	c3.823,27.415,26.791,42.919,37.163,48.603c10.438-5.497,33.208-20.545,36.913-48.603H218.977z"/>
<g>
</g>
<g>
</g>
<g>
</g>
<g>
</g>
<g>
</g>
<g>
</g>
<g>
</g>
<g>
</g>
<g>
</g>
<g>
</g>
<g>
</g>
<g>
</g>
<g>
</g>
<g>
</g>
<g>
</g>
</svg>
